<?xml version="1.0" encoding="UTF-8"?>
<svg id="_圖層_2" data-name="圖層 2" xmlns="http://www.w3.org/2000/svg" xmlns:xlink="http://www.w3.org/1999/xlink" viewBox="0 0 300 300">
  <defs>
    <style>
      .cls-1 {
        fill: url(#_未命名漸層);
      }

      .cls-1, .cls-2 {
        stroke-width: 0px;
      }

      .cls-2 {
        fill: #fff;
      }
    </style>
    <linearGradient id="_未命名漸層" data-name="未命名漸層" x1="1.03" y1="150" x2="301.03" y2="150" gradientTransform="translate(0 -1.03) rotate(90) scale(1 -1)" gradientUnits="userSpaceOnUse">
      <stop offset="0" stop-color="#fdb913"/>
      <stop offset="1" stop-color="#f2672e"/>
    </linearGradient>
  </defs>
  <g id="_圖層_1-2" data-name="圖層 1">
    <g>
      <polyline class="cls-1" points="0 300 300 300 300 0"/>
      <g>
        <path class="cls-2" d="M147.34,272.22l-56.91-38.13,8.68-8.68,28.04,19.93c2.92,2.06,5.84,4.15,8.78,6.27,2.94,2.12,5.88,4.28,8.84,6.46l.26-.26c-2.06-3.09-4.09-6.15-6.11-9.2-2.01-3.04-4.01-6.06-5.98-9.07l-18.2-29.77,7.39-7.39,29.77,18.2c3,1.89,6.02,3.86,9.07,5.92,3.04,2.06,6.13,4.09,9.26,6.11l.32-.32c-2.23-2.91-4.42-5.83-6.56-8.74-2.14-2.91-4.29-5.79-6.43-8.62l-19.8-28.16,8.1-8.1,38.45,56.58-10.55,10.55-30.8-19.1c-2.23-1.46-4.43-2.9-6.59-4.34-2.17-1.44-4.32-2.92-6.46-4.47l-.26.26c1.54,2.14,3.02,4.31,4.44,6.5,1.41,2.19,2.87,4.37,4.37,6.56l19.23,30.67-10.35,10.35Z"/>
        <path class="cls-2" d="M200.13,219.43l-6.88-6.88,10.35-10.35-30.22-30.22-8.62,8.62-5.27-5.27c1.84-2.79,3.31-5.33,4.4-7.62,1.09-2.29,1.9-4.6,2.41-6.91l6.3-6.3,39.35,39.35,9.13-9.13,6.88,6.88-27.84,27.84Z"/>
        <path class="cls-2" d="M234.78,184.77l-4.89-4.89c.17-8.4.18-15.81.03-22.22-.15-6.41-.72-11.8-1.71-16.17-.99-4.37-2.66-7.74-5.01-10.09-1.67-1.67-3.38-2.8-5.11-3.38-1.74-.58-3.49-.64-5.27-.19-1.78.45-3.5,1.51-5.18,3.18-1.8,1.8-2.93,3.95-3.38,6.46-.45,2.51-.61,5.07-.48,7.68l-9.32.06c-.22-4.41.21-8.38,1.29-11.9,1.07-3.51,3.19-6.86,6.37-10.03,2.96-2.96,6.11-4.95,9.45-5.98s6.69-1.09,10.03-.19c3.34.9,6.45,2.79,9.32,5.66s4.76,6.3,6.04,10.67c1.29,4.37,2.14,9.3,2.57,14.79.43,5.49.71,11.38.84,17.68,1.11-1.37,2.33-2.82,3.63-4.34s2.52-2.84,3.63-3.96l11.25-11.25,7.14,7.14-31.25,31.25Z"/>
      </g>
    </g>
  </g>
</svg>