<?xml version="1.0" encoding="UTF-8"?>
<svg id="_圖層_2" data-name="圖層 2" xmlns="http://www.w3.org/2000/svg" xmlns:xlink="http://www.w3.org/1999/xlink" viewBox="0 0 300 300">
  <defs>
    <style>
      .cls-1 {
        fill: url(#_未命名漸層_3);
      }

      .cls-1, .cls-2 {
        stroke-width: 0px;
      }

      .cls-2 {
        fill: #fff;
      }
    </style>
    <linearGradient id="_未命名漸層_3" data-name="未命名漸層 3" x1="1.03" y1="150" x2="301.03" y2="150" gradientTransform="translate(-1.03)" gradientUnits="userSpaceOnUse">
      <stop offset="0" stop-color="#45f7ff"/>
      <stop offset="1" stop-color="#2278f3"/>
    </linearGradient>
  </defs>
  <g id="_圖層_1-2" data-name="圖層 1">
    <g>
      <polyline class="cls-1" points="300 0 300 300 0 300"/>
      <g>
        <path class="cls-2" d="M161.29,270.61l-56.91-38.13,8.68-8.68,28.04,19.93c2.92,2.06,5.84,4.15,8.78,6.27,2.94,2.12,5.88,4.28,8.84,6.46l.26-.26c-2.06-3.09-4.09-6.15-6.11-9.2-2.01-3.04-4.01-6.06-5.98-9.07l-18.2-29.77,7.39-7.39,29.77,18.2c3,1.89,6.02,3.86,9.07,5.92,3.04,2.06,6.13,4.09,9.26,6.11l.32-.32c-2.23-2.91-4.42-5.83-6.56-8.74-2.14-2.91-4.29-5.79-6.43-8.62l-19.8-28.16,8.1-8.1,38.45,56.58-10.55,10.55-30.8-19.1c-2.23-1.46-4.43-2.9-6.59-4.34-2.17-1.44-4.32-2.92-6.46-4.47l-.26.26c1.54,2.14,3.02,4.31,4.44,6.5,1.41,2.19,2.87,4.37,4.37,6.56l19.23,30.67-10.35,10.35Z"/>
        <path class="cls-2" d="M214.08,217.82l-6.88-6.88,10.35-10.35-30.22-30.22-8.62,8.62-5.27-5.27c1.84-2.79,3.31-5.33,4.4-7.62,1.09-2.29,1.9-4.6,2.41-6.91l6.3-6.3,39.35,39.35,9.13-9.13,6.88,6.88-27.84,27.84Z"/>
        <path class="cls-2" d="M266.87,166.83c-2.27,2.27-4.87,3.96-7.78,5.08-2.92,1.12-6.08,1.51-9.48,1.19s-6.98-1.45-10.71-3.38c-3.73-1.93-7.54-4.84-11.44-8.74-4.5-4.5-7.86-8.84-10.06-13.02-2.21-4.18-3.47-8.14-3.79-11.89-.32-3.75.12-7.19,1.32-10.32,1.2-3.13,2.98-5.87,5.34-8.23,2.83-2.83,5.78-4.75,8.84-5.75,3.06-1.01,5.99-1.49,8.78-1.45l.58,9.58c-1.84-.13-3.75.15-5.72.84-1.97.69-3.67,1.74-5.08,3.15-1.97,1.97-3.21,4.36-3.7,7.17-.49,2.81.11,6.04,1.8,9.71,1.69,3.67,4.85,7.81,9.48,12.44,3.82,3.82,7.3,6.53,10.45,8.13,3.15,1.61,5.95,2.3,8.39,2.09,2.44-.21,4.5-1.16,6.17-2.83,1.33-1.33,2.17-2.86,2.54-4.6.36-1.73.2-3.57-.48-5.5-.69-1.93-1.95-3.82-3.79-5.66-1.84-1.84-3.68-3.07-5.5-3.7-1.82-.62-3.58-.69-5.27-.19-1.69.49-3.29,1.49-4.79,2.99-1.33,1.33-2.33,3.18-2.99,5.56-.67,2.38-.61,5.28.16,8.71l-6.24-5.59c-.3-2.1-.3-4.18,0-6.24.3-2.06.86-3.96,1.67-5.72s1.78-3.19,2.89-4.31c2.66-2.66,5.52-4.49,8.58-5.5,3.06-1.01,6.23-1.02,9.48-.03,3.26.99,6.49,3.09,9.71,6.3,3.04,3.04,5.04,6.37,5.98,9.97.94,3.6.95,7.13.03,10.58-.92,3.45-2.71,6.5-5.37,9.16Z"/>
      </g>
    </g>
  </g>
</svg>