<?xml version="1.0" encoding="UTF-8"?>
<svg id="_圖層_2" data-name="圖層 2" xmlns="http://www.w3.org/2000/svg" xmlns:xlink="http://www.w3.org/1999/xlink" viewBox="0 0 300 300">
  <defs>
    <style>
      .cls-1 {
        fill: #fff;
      }

      .cls-1, .cls-2 {
        stroke-width: 0px;
      }

      .cls-2 {
        fill: url(#_未命名漸層_2);
      }
    </style>
    <linearGradient id="_未命名漸層_2" data-name="未命名漸層 2" x1="0" y1="150" x2="300" y2="150" gradientUnits="userSpaceOnUse">
      <stop offset="0" stop-color="#fd4845"/>
      <stop offset="1" stop-color="#843ea1"/>
    </linearGradient>
  </defs>
  <g id="_圖層_1-2" data-name="圖層 1">
    <g>
      <polyline class="cls-2" points="300 0 300 300 0 300"/>
      <g>
        <path class="cls-1" d="M152.91,271.52l-56.91-38.13,8.68-8.68,28.04,19.93c2.92,2.06,5.84,4.15,8.78,6.27,2.94,2.12,5.88,4.28,8.84,6.46l.26-.26c-2.06-3.09-4.09-6.15-6.11-9.19-2.01-3.04-4.01-6.07-5.98-9.07l-18.2-29.77,7.39-7.39,29.77,18.2c3,1.89,6.02,3.86,9.07,5.92,3.04,2.06,6.13,4.09,9.26,6.11l.32-.32c-2.23-2.91-4.42-5.83-6.56-8.74-2.14-2.91-4.29-5.79-6.43-8.62l-19.8-28.16,8.1-8.1,38.45,56.58-10.55,10.55-30.8-19.1c-2.23-1.46-4.43-2.9-6.59-4.34-2.17-1.44-4.32-2.92-6.46-4.47l-.26.26c1.54,2.14,3.02,4.31,4.44,6.5,1.41,2.19,2.87,4.37,4.37,6.56l19.23,30.67-10.35,10.35Z"/>
        <path class="cls-1" d="M205.7,218.73l-6.88-6.88,10.35-10.35-30.22-30.22-8.62,8.62-5.27-5.27c1.84-2.79,3.31-5.33,4.4-7.62,1.09-2.29,1.9-4.6,2.41-6.91l6.3-6.3,39.35,39.35,9.13-9.13,6.88,6.88-27.84,27.84Z"/>
        <path class="cls-1" d="M242.99,181.44l-6.88-6.88,10.35-10.35-30.22-30.22-8.62,8.62-5.27-5.27c1.84-2.79,3.31-5.33,4.4-7.62,1.09-2.29,1.9-4.6,2.41-6.91l6.3-6.3,39.35,39.35,9.13-9.13,6.88,6.88-27.84,27.84Z"/>
      </g>
    </g>
  </g>
</svg>