<?xml version="1.0" encoding="UTF-8"?>
<svg id="_圖層_2" data-name="圖層 2" xmlns="http://www.w3.org/2000/svg" xmlns:xlink="http://www.w3.org/1999/xlink" viewBox="0 0 300 300">
  <defs>
    <style>
      .cls-1 {
        fill: #fff;
      }

      .cls-1, .cls-2 {
        stroke-width: 0px;
      }

      .cls-2 {
        fill: url(#_未命名漸層_4);
      }
    </style>
    <linearGradient id="_未命名漸層_4" data-name="未命名漸層 4" x1=".52" y1="149.48" x2="300.52" y2="149.48" gradientTransform="translate(-.52 .52)" gradientUnits="userSpaceOnUse">
      <stop offset="0" stop-color="#6de5be"/>
      <stop offset="1" stop-color="#18b18e"/>
    </linearGradient>
  </defs>
  <g id="_圖層_1-2" data-name="圖層 1">
    <g>
      <polyline class="cls-2" points="300 0 300 300 0 300"/>
      <g>
        <path class="cls-1" d="M159.06,266.14l-56.91-38.13,8.68-8.68,28.04,19.93c2.92,2.06,5.84,4.15,8.78,6.27,2.94,2.12,5.88,4.28,8.84,6.46l.26-.26c-2.06-3.09-4.09-6.15-6.11-9.19-2.01-3.04-4.01-6.07-5.98-9.07l-18.2-29.77,7.39-7.39,29.77,18.2c3,1.89,6.02,3.86,9.07,5.92,3.04,2.06,6.13,4.09,9.26,6.11l.32-.32c-2.23-2.92-4.42-5.83-6.56-8.75-2.14-2.91-4.29-5.79-6.43-8.62l-19.8-28.16,8.1-8.1,38.45,56.58-10.54,10.55-30.8-19.1c-2.23-1.46-4.43-2.9-6.59-4.34-2.17-1.44-4.32-2.92-6.46-4.47l-.26.26c1.54,2.14,3.02,4.31,4.44,6.49,1.41,2.19,2.87,4.37,4.37,6.56l19.22,30.67-10.35,10.35Z"/>
        <path class="cls-1" d="M211.85,213.35l-6.88-6.88,10.35-10.35-30.22-30.22-8.62,8.62-5.27-5.27c1.84-2.79,3.31-5.32,4.4-7.62,1.09-2.29,1.9-4.6,2.41-6.91l6.3-6.3,39.35,39.35,9.13-9.13,6.88,6.88-27.84,27.84Z"/>
        <path class="cls-1" d="M262,165c-2.49,2.49-4.99,4.39-7.52,5.72-2.53,1.33-5.04,2.25-7.52,2.77-2.49.51-4.89.69-7.2.51l-1.29-9.39c2.79-.04,5.55-.45,8.29-1.22,2.74-.77,5.27-2.31,7.59-4.63,1.71-1.71,2.95-3.48,3.7-5.3.75-1.82.96-3.61.61-5.37s-1.22-3.34-2.64-4.76c-1.63-1.63-3.42-2.63-5.37-2.99-1.95-.36-4.22.13-6.82,1.48-2.59,1.35-5.65,3.78-9.16,7.3l-6.17-6.17c3.04-3.04,5.11-5.75,6.21-8.13,1.09-2.38,1.46-4.5,1.09-6.37-.37-1.86-1.25-3.5-2.67-4.92-1.93-1.93-4.04-2.84-6.33-2.73-2.29.11-4.51,1.23-6.65,3.38-1.76,1.76-2.98,3.79-3.67,6.11-.69,2.32-1.07,4.85-1.16,7.59l-9.58-.96c.26-3.69.99-7.2,2.19-10.54,1.2-3.34,3.17-6.39,5.91-9.13,2.96-2.96,6.04-5.09,9.23-6.4,3.19-1.31,6.33-1.68,9.42-1.12,3.09.56,5.92,2.12,8.49,4.7s4.08,5.52,4.41,8.71c.32,3.2-.27,6.53-1.77,10l.26.26c2.27-1.33,4.65-2.21,7.14-2.64,2.48-.43,4.92-.29,7.3.42,2.38.71,4.6,2.09,6.65,4.15,2.83,2.83,4.5,5.98,5.02,9.45.52,3.47.06,6.97-1.35,10.48-1.41,3.52-3.62,6.77-6.62,9.77Z"/>
      </g>
    </g>
  </g>
</svg>